#!OML:ASF X:\für Bonn\!DataBase\2005_08_11_Bastian_Final\c3d\Bastian.ASF
:FULLY-SPECIFIED
:DEGREES
32
root 0.501327 14.2823 0.880123 170.809 -3.81086 -172.582
lowerback 24.9657 -1.85914 2.35906
upperback 4.11611 -2.56122 1.84408
thorax -9.3225 -1.65214 1.58227
lowerneck -13.4136 -5.65197 -3.02953
upperneck -3.56827 -6.51735 10.4148
head 1.71167 -2.62948 3.60859
rclavicle 1.6201e-014 1.51076e-014
rhumerus 75.8398 10.1082 16.8739
rradius 41.5285
rwrist -69.3296
rhand -46.6263 -5.4846
rfingers 7.12502
rthumb -19.348 -34.5421
lclavicle 1.6201e-014 1.51076e-014
lhumerus 68.5453 -18.3017 -34.1644
lradius 32.0649
lwrist 24.0738
lhand -44.6597 17.889
lfingers 7.12502
lthumb -17.4562 47.1252
rfemur -26.1522 -8.22536 25.5026
rtibia 83.3826
rfoot -39.2429 -8.75233
rtoes -12.1464
lfemur -31.7969 8.46585 -12.7997
ltibia 90.3504
lfoot -33.8355 -6.07283
ltoes -15.3845
33
root 0.502808 14.0233 0.892111 170.867 -3.46545 -172.632
lowerback 25.2307 -1.75371 2.40275
upperback 4.12324 -2.41789 1.82387
thorax -9.45508 -1.59105 1.5019
lowerneck -13.3357 -5.66864 -3.03202
upperneck -3.94075 -6.47834 10.5255
head 1.57592 -2.60476 3.65275
rclavicle 8.05078e-015 5.56597e-015
rhumerus 75.6067 9.39909 16.6421
rradius 41.5776
rwrist -69.232
rhand -46.2871 -5.81432
rfingers 7.12502
rthumb -19.0218 -34.9042
lclavicle 8.05078e-015 5.56597e-015
lhumerus 68.0075 -17.5064 -34.1177
lradius 32.0388
lwrist 24.0909
lhand -44.3298 17.8761
lfingers 7.12502
lthumb -17.1387 47.1402
rfemur -27.6637 -8.20777 25.4579
rtibia 86.1432
rfoot -40.3736 -8.7192
rtoes -11.4815
lfemur -32.5406 8.38061 -12.84
ltibia 92.4492
lfoot -36.4349 -6.5429
ltoes -13.0128
34
root 0.505942 13.7678 0.905025 170.914 -3.18892 -172.631
lowerback 25.5289 -1.67178 2.43957
upperback 4.1181 -2.30222 1.83694
thorax -9.61645 -1.54246 1.47264
lowerneck -13.236 -5.67005 -3.02797
upperneck -4.30989 -6.42062 10.6185
head 1.43521 -2.5727 3.69125
rclavicle -5.76476e-015 1.07344e-014
rhumerus 75.4157 8.74809 16.4546
rradius 41.6139
rwrist -69.1299
rhand -45.9635 -6.00506
rfingers 7.12502
rthumb -18.7106 -35.1252
lclavicle -5.76476e-015 1.07344e-014
lhumerus 67.4809 -16.7467 -34.0524
lradius 32.0227
lwrist 24.1635
lhand -44.0427 17.8342
lfingers 7.12502
lthumb -16.8623 47.1221
rfemur -29.2314 -8.26309 25.4703
rtibia 88.9303
rfoot -41.1809 -8.6927
rtoes -11.1091
lfemur -33.43 8.28311 -12.8149
ltibia 94.7405
lfoot -38.8351 -6.91397
ltoes -11.6138
35
root 0.50988 13.5196 0.915679 170.933 -2.96165 -172.633
lowerback 25.8343 -1.58828 2.46754
upperback 4.1204 -2.18851 1.83858
thorax -9.77302 -1.49518 1.43553
lowerneck -13.1483 -5.68297 -2.959
upperneck -4.65722 -6.38835 10.6764
head 1.30134 -2.55424 3.70318
rclavicle 2.69353e-014 -9.14409e-015
rhumerus 75.167 8.16752 16.0955
rradius 41.6056
rwrist -68.9168
rhand -45.5783 -6.12182
rfingers 7.12502
rthumb -18.3401 -35.2772
lclavicle 2.69353e-014 -9.14409e-015
lhumerus 67.0083 -15.9637 -33.851
lradius 31.9968
lwrist 24.1743
lhand -43.769 17.801
lfingers 7.12502
lthumb -16.5988 47.1112
rfemur -30.7797 -8.37633 25.4614
rtibia 91.7465
rfoot -41.7468 -8.56112
rtoes -10.8123
lfemur -34.4569 8.18174 -12.8196
ltibia 97.158
lfoot -40.9466 -6.91878
ltoes -11.6441
36
root 0.515045 13.2766 0.925204 170.931 -2.78668 -172.589
lowerback 26.1257 -1.52786 2.52151
upperback 4.16407 -2.1062 1.85675
thorax -9.87508 -1.46708 1.40996
lowerneck -13.1145 -5.68912 -2.91459
upperneck -5.04087 -6.33155 10.7683
head 1.16619 -2.51848 3.73315
rclavicle -4.9895e-014 2.90226e-014
rhumerus 74.9099 7.50348 15.8478
rradius 41.6469
rwrist -68.8448
rhand -45.2353 -6.21482
rfingers 7.12502
rthumb -18.01 -35.401
lclavicle -4.9895e-014 2.90226e-014
lhumerus 66.4903 -15.1393 -33.4201
lradius 31.9342
lwrist 24.002
lhand -43.4556 17.8055
lfingers 7.12502
lthumb -16.297 47.1407
rfemur -32.3331 -8.55809 25.5056
rtibia 94.5843
rfoot -42.1488 -8.40496
rtoes -10.6678
lfemur -35.6518 7.97871 -12.8157
ltibia 99.6963
lfoot -42.3775 -6.54187
ltoes -13.1525
37
root 0.521528 13.0217 0.934957 170.918 -2.6519 -172.566
lowerback 26.4306 -1.46746 2.51986
upperback 4.20216 -2.03677 1.88727
thorax -9.98798 -1.4428 1.43482
lowerneck -13.0451 -5.70708 -2.89752
upperneck -5.43456 -6.28776 10.8486
head 1.02331 -2.49154 3.76418
rclavicle 4.58199e-014 -1.07344e-014
rhumerus 74.6791 6.83292 15.8302
rradius 41.6994
rwrist -68.9136
rhand -44.944 -6.23839
rfingers 7.12502
rthumb -17.7297 -35.4501
lclavicle 4.58199e-014 -1.07344e-014
lhumerus 66.0043 -14.3649 -32.9452
lradius 31.8835
lwrist 23.9157
lhand -43.2277 17.798
lfingers 7.12502
lthumb -16.0777 47.151
rfemur -33.9728 -8.79833 25.5216
rtibia 97.5279
rfoot -42.0596 -8.33825
rtoes -10.951
lfemur -37.0304 7.83677 -12.8259
ltibia 102.384
lfoot -43.2458 -6.16978
ltoes -15.0846
38
root 0.52961 12.7732 0.944037 170.88 -2.52821 -172.5
lowerback 26.76 -1.40943 2.53851
upperback 4.24109 -1.96457 1.93082
thorax -10.1121 -1.41866 1.46252
lowerneck -12.9576 -5.72633 -2.92092
upperneck -5.82774 -6.23939 10.9678
head 0.881018 -2.46128 3.81766
rclavicle -1.22253e-014 3.18055e-015
rhumerus 74.4462 6.2155 15.8476
rradius 41.7537
rwrist -69.0109
rhand -44.7307 -6.21121
rfingers 7.12502
rthumb -17.5245 -35.4414
lclavicle -1.22253e-014 3.18055e-015
lhumerus 65.5453 -13.618 -32.5297
lradius 31.8957
lwrist 23.9598
lhand -43.0616 17.8358
lfingers 7.12502
lthumb -15.9177 47.2016
rfemur -35.5582 -9.06632 25.5947
rtibia 100.442
rfoot -41.9537 -8.28581
rtoes -11.4896
lfemur -38.486 7.74426 -12.7566
ltibia 105.164
lfoot -43.7909 -5.71932
ltoes -17.4727
39
root 0.53872 12.5227 0.953738 170.816 -2.44186 -172.474
lowerback 27.1172 -1.34851 2.49788
upperback 4.28957 -1.90774 1.96759
thorax -10.2381 -1.40067 1.52264
lowerneck -12.8969 -5.74375 -2.9415
upperneck -6.2155 -6.18644 11.0844
head 0.744667 -2.42714 3.86991
rclavicle -2.38542e-015 -7.95139e-016
rhumerus 74.2571 5.6396 15.9595
rradius 41.7702
rwrist -69.142
rhand -44.5838 -6.17313
rfingers 7.12502
rthumb -17.3831 -35.4158
lclavicle -2.38542e-015 -7.95139e-016
lhumerus 65.1304 -12.8996 -32.2138
lradius 31.9539
lwrist 24.1607
lhand -42.9772 17.9208
lfingers 7.12502
lthumb -15.8364 47.2931
rfemur -37.1026 -9.4016 25.6028
rtibia 103.367
rfoot -41.8376 -8.20685
rtoes -11.9819
lfemur -40.047 7.73439 -12.7071
ltibia 108.034
lfoot -44.1146 -5.24915
ltoes -20.0228
40
root 0.551423 12.2701 0.962533 170.75 -2.34395 -172.431
lowerback 27.4579 -1.27262 2.44219
upperback 4.35033 -1.83874 2.013
thorax -10.3405 -1.37748 1.59557
lowerneck -12.8753 -5.77628 -2.97915
upperneck -6.58048 -6.15243 11.2015
head 0.624737 -2.40015 3.92409
rclavicle 1.98785e-015 6.75868e-015
rhumerus 74.046 5.08439 16.1941
rradius 41.8058
rwrist -69.326
rhand -44.5653 -6.04073
rfingers 7.12502
rthumb -17.3653 -35.285
lclavicle 1.98785e-015 6.75868e-015
lhumerus 64.726 -12.1912 -31.9275
lradius 32.0447
lwrist 24.4177
lhand -42.9263 18.0438
lfingers 7.12502
lthumb -15.7874 47.42
rfemur -38.628 -9.75314 25.6549
rtibia 106.265
rfoot -41.7922 -8.16174
rtoes -12.465
lfemur -41.658 7.90456 -12.5456
ltibia 110.917
lfoot -44.107 -5.17388
ltoes -21.9642
41
root 0.563727 12.0173 0.972611 170.672 -2.28137 -172.444
lowerback 27.8189 -1.18688 2.34605
upperback 4.41792 -1.77216 2.034
thorax -10.445 -1.35465 1.66545
lowerneck -12.8916 -5.81397 -2.95455
upperneck -6.94484 -6.12958 11.2747
head 0.507677 -2.37811 3.94971
rclavicle 3.57812e-015 -1.59028e-015
rhumerus 73.8083 4.54289 16.553
rradius 41.8506
rwrist -69.5975
rhand -44.6244 -5.93227
rfingers 7.12502
rthumb -17.4222 -35.1715
lclavicle 3.57812e-015 -1.59028e-015
lhumerus 64.4116 -11.5187 -31.8368
lradius 32.1745
lwrist 24.8741
lhand -42.9871 18.2167
lfingers 7.12502
lthumb -15.8459 47.5883
rfemur -40.0848 -10.193 25.6297
rtibia 109.122
rfoot -41.982 -8.17391
rtoes -13.1282
lfemur -43.2387 8.2569 -12.3916
ltibia 113.721
lfoot -43.965 -5.36776
ltoes -23.4086
42
root 0.573807 11.7608 0.982311 170.578 -2.18597 -172.442
lowerback 28.194 -1.10016 2.26183
upperback 4.49181 -1.70391 2.06208
thorax -10.5491 -1.33281 1.73614
lowerneck -12.9372 -5.84704 -2.96519
upperneck -7.27137 -6.0992 11.3765
head 0.410294 -2.34967 3.99226
rclavicle -1.94809e-014 2.3059e-014
rhumerus 73.5797 3.99832 17.077
rradius 41.9774
rwrist -70.0881
rhand -44.7684 -5.74013
rfingers 7.12502
rthumb -17.5608 -34.967
lclavicle -1.94809e-014 2.3059e-014
lhumerus 64.0513 -10.8715 -31.6823
lradius 32.3324
lwrist 25.3067
lhand -43.0745 18.3995
lfingers 7.12502
lthumb -15.9301 47.7644
rfemur -41.4552 -10.6509 25.5942
rtibia 111.924
rfoot -42.4614 -8.06323
rtoes -13.4699
lfemur -44.7409 8.80046 -12.1232
ltibia 116.449
lfoot -43.9994 -5.92594
ltoes -24.2574
43
root 0.581648 11.4966 0.991368 170.505 -2.10684 -172.485
lowerback 28.5637 -1.01244 2.16675
upperback 4.54542 -1.6348 2.06912
thorax -10.6736 -1.30814 1.7888
lowerneck -12.9568 -5.88936 -2.97817
upperneck -7.60823 -6.0799 11.4718
head 0.305618 -2.32793 4.03307
rclavicle 4.27387e-015 -7.95139e-016
rhumerus 73.3211 3.4658 17.7778
rradius 42.1269
rwrist -70.7292
rhand -44.9397 -5.52756
rfingers 7.12502
rthumb -17.7257 -34.7396
lclavicle 4.27387e-015 -7.95139e-016
lhumerus 63.7613 -10.2777 -31.7194
lradius 32.5368
lwrist 25.9457
lhand -43.2601 18.6046
lfingers 7.12502
lthumb -16.1089 47.9551
rfemur -42.8064 -11.1984 25.4647
rtibia 114.701
rfoot -43.1749 -7.83462
rtoes -13.5961
lfemur -46.2435 9.38669 -11.8439
ltibia 119.167
lfoot -44.0588 -6.95022
ltoes -24.0798
44
root 0.58963 11.2264 0.99994 170.39 -2.03581 -172.546
lowerback 28.9649 -0.917624 2.0347
upperback 4.61956 -1.57415 2.08146
thorax -10.7891 -1.28865 1.87247
lowerneck -13.0163 -5.92726 -2.98619
upperneck -7.91782 -6.05823 11.5404
head 0.215048 -2.30389 4.06281
rclavicle -1.09332e-015 2.22639e-014
rhumerus 73.0868 2.8989 18.4126
rradius 42.2637
rwrist -71.401
rhand -45.1073 -5.34022
rfingers 7.12502
rthumb -17.8869 -34.5377
lclavicle -1.09332e-015 2.22639e-014
lhumerus 63.436 -9.64924 -31.5968
lradius 32.7003
lwrist 26.4788
lhand -43.4428 18.7832
lfingers 7.12502
lthumb -16.2848 48.1193
rfemur -44.06 -11.8417 25.294
rtibia 117.428
rfoot -43.9865 -7.7267
rtoes -13.8629
lfemur -47.6442 10.1304 -11.4812
ltibia 121.877
lfoot -44.1986 -8.32083
ltoes -23.3163
45
root 0.596927 10.952 1.00789 170.288 -1.96582 -172.605
lowerback 29.3796 -0.823839 1.92052
upperback 4.69426 -1.51276 2.07744
thorax -10.9109 -1.27 1.92716
lowerneck -13.1897 -5.96362 -2.92632
upperneck -8.18477 -6.04078 11.5817
head 0.154165 -2.2769 4.06722
rclavicle 1.70955e-014 -1.03368e-014
rhumerus 72.8239 2.34154 18.9723
rradius 42.3682
rwrist -72.0439
rhand -45.205 -5.11436
rfingers 7.12502
rthumb -17.9809 -34.3032
lclavicle 1.70955e-014 -1.03368e-014
lhumerus 63.1147 -8.96641 -31.3395
lradius 32.844
lwrist 26.8327
lhand -43.5879 18.9544
lfingers 7.12502
lthumb -16.4244 48.279
rfemur -45.3024 -12.5437 25.1052
rtibia 120.116
rfoot -44.7976 -7.55953
rtoes -14.0431
lfemur -48.9777 11.0578 -11.0499
ltibia 124.574
lfoot -44.398 -9.91519
ltoes -22.0248
46
root 0.604556 10.6772 1.01559 170.162 -1.89282 -172.647
lowerback 29.8374 -0.720732 1.80796
upperback 4.75941 -1.43742 2.09621
thorax -11.0642 -1.24506 2.00347
lowerneck -13.3405 -6.01251 -2.92263
upperneck -8.42794 -6.04159 11.6178
head 0.100658 -2.26027 4.07972
rclavicle -5.1684e-015 4.77083e-015
rhumerus 72.5469 1.78729 19.6832
rradius 42.5387
rwrist -72.8609
rhand -45.3036 -4.92807
rfingers 7.12502
rthumb -18.0757 -34.1082
lclavicle -5.1684e-015 4.77083e-015
lhumerus 62.8272 -8.36399 -31.2314
lradius 33.0255
lwrist 27.4335
lhand -43.8591 19.0695
lfingers 7.12502
lthumb -16.6856 48.3723
rfemur -46.5119 -13.3454 24.9216
rtibia 122.758
rfoot -45.4983 -7.39597
rtoes -14.169
lfemur -50.1975 12.2389 -10.5319
ltibia 127.225
lfoot -44.6478 -11.5564
ltoes -20.6718
